<svg width="16" height="17" viewBox="0 0 16 17" fill="none" xmlns="http://www.w3.org/2000/svg">
<path d="M14.994 6.05928V2.25195L13.14 4.07047L12.3636 4.83193L11.1123 6.05928H14.994Z" fill="#8C8C8C"/>
<path d="M13.8525 10.4183C13.0422 12.7497 10.793 14.4234 8.13671 14.4234C4.79587 14.4214 2.09765 11.7768 2.09765 8.5C2.09765 5.22315 4.79587 2.57662 8.13671 2.57662C9.93885 2.57662 11.5374 3.3557 12.645 4.57914L13.4214 3.81767C12.1122 2.40045 10.2342 1.5 8.13671 1.5C4.19914 1.5 1 4.63786 1 8.5C1 12.3621 4.19914 15.5 8.13671 15.5C11.3957 15.5 14.1498 13.3507 15 10.4183H13.8525Z" fill="#8C8C8C"/>
</svg>
