<svg width="64" height="64" viewBox="0 0 64 64" fill="none" xmlns="http://www.w3.org/2000/svg">
<path d="M36.5242 33.75C36.2953 33.75 36.0572 33.6588 35.8832 33.4857L30.6 28.2723C30.2429 27.9169 30.2429 27.3427 30.5909 26.9872C30.948 26.6318 31.5248 26.6318 31.8819 26.9781L37.1651 32.1914C37.5222 32.5469 37.5222 33.1211 37.1743 33.4765C36.9912 33.6588 36.7623 33.75 36.5242 33.75Z" fill="#202428"/>
<path d="M31.0582 38.8902C30.8201 38.8902 30.582 38.7991 30.3989 38.6077L25.3812 33.4308C25.0333 33.0662 25.0424 32.492 25.4087 32.1457C25.7749 31.7994 26.3518 31.8085 26.6997 32.173L31.7174 37.3499C32.0654 37.7145 32.0562 38.2887 31.6899 38.635C31.516 38.8082 31.2871 38.8902 31.0582 38.8902Z" fill="#202428"/>
<path d="M36.5266 62.4142C36.2976 62.4142 36.0687 62.3321 35.8948 62.159C35.5285 61.8126 35.5194 61.2293 35.8673 60.8739L38.834 57.8115C39.0171 57.6201 39.2826 57.5198 39.5573 57.5381C41.2604 57.6565 42.1302 57.1644 42.9085 56.3805L55.4527 43.8941C55.7183 43.6298 55.8556 43.2925 55.8556 42.9189C55.8556 42.5543 55.7091 42.2079 55.4527 41.9527L54.8026 41.3056C54.2624 40.7679 53.3926 40.777 52.8523 41.3056L51.2317 42.9189C50.8746 43.2743 50.2977 43.2743 49.9406 42.9189C49.5835 42.5634 49.5835 41.9892 49.9406 41.6337L51.5613 40.0205C52.8157 38.7719 54.8484 38.7719 56.1028 40.0205L56.7529 40.6676C57.3573 41.2692 57.696 42.0712 57.696 42.928C57.696 43.7847 57.3573 44.5868 56.7529 45.1883L44.2087 57.6748C43.3755 58.5042 42.1028 59.4247 39.8686 59.3791L37.1858 62.1498C37.0027 62.3139 36.7646 62.4142 36.5266 62.4142Z" fill="#202428"/>
<path d="M22.0677 49.536C21.8296 49.536 21.5916 49.4449 21.4176 49.2626C21.0605 48.9072 21.0696 48.3238 21.4267 47.9775L23.0199 46.4281C21.7014 43.5115 22.2783 40.7135 24.723 38.28L27.9003 35.1173C28.2574 34.7619 28.8342 34.7619 29.1913 35.1173C29.5484 35.4728 29.5484 36.047 29.1913 36.4024L26.0141 39.5651C23.9447 41.6249 23.606 43.7303 24.9428 46.182C25.1351 46.5375 25.071 46.9841 24.778 47.2666L22.7086 49.2717C22.5255 49.4449 22.2966 49.536 22.0677 49.536Z" fill="#202428"/>
<path d="M50.5706 43.1831C50.3325 43.1831 50.1036 43.092 49.9205 42.9188C49.5634 42.5634 49.5634 41.9892 49.9205 41.6337L51.5412 40.0205C51.8067 39.7562 51.9441 39.419 51.9441 39.0453C51.9441 38.6807 51.7976 38.3344 51.5412 38.0792L50.8911 37.4321C50.3508 36.8943 49.481 36.8943 48.9408 37.4321L47.3201 39.0453C46.963 39.4007 46.3862 39.4007 46.0291 39.0453C45.672 38.6898 45.672 38.1156 46.0291 37.7602L47.6497 36.147C48.9041 34.8983 50.9369 34.8983 52.1913 36.147L52.8414 36.7941C53.4457 37.3956 53.7845 38.1976 53.7845 39.0544C53.7845 39.9111 53.4457 40.7132 52.8414 41.3147L51.2207 42.9279C51.0467 43.092 50.8087 43.1831 50.5706 43.1831Z" fill="#202428"/>
<path d="M46.6788 39.3006C46.4407 39.3006 46.2118 39.2095 46.0287 39.0363C45.6716 38.6809 45.6716 38.1067 46.0287 37.7512L47.6493 36.138C47.9149 35.8737 48.0522 35.5365 48.0522 35.1628C48.0522 34.7982 47.9057 34.4519 47.6493 34.1967L46.9992 33.5496C46.7429 33.2944 46.3949 33.1485 46.0287 33.1485C45.6624 33.1485 45.3145 33.2944 45.0489 33.5496L43.4283 35.1628C43.0712 35.5182 42.4943 35.5182 42.1372 35.1628C41.7801 34.8073 41.7801 34.2331 42.1372 33.8777L43.7579 32.2644C44.3622 31.6629 45.168 31.3257 46.0287 31.3257C46.8894 31.3257 47.6951 31.6629 48.2994 32.2644L48.9495 32.9116C49.5538 33.5131 49.8926 34.3151 49.8926 35.1719C49.8926 36.0286 49.5538 36.8307 48.9495 37.4322L47.3289 39.0454C47.1457 39.2095 46.9077 39.3006 46.6788 39.3006Z" fill="#202428"/>
<path d="M29.519 40.8499C29.2809 40.8499 29.052 40.7587 28.8689 40.5855C28.5118 40.2301 28.5118 39.6559 28.8689 39.3004L39.8565 28.3816C40.4608 27.7801 41.2666 27.4428 42.1273 27.4428C42.988 27.4428 43.7938 27.771 44.3981 28.3816L45.0482 29.0287C46.3026 30.2774 46.2934 32.3007 45.0482 33.5494L43.4275 35.1626C43.0704 35.518 42.4936 35.518 42.1365 35.1626C41.7794 34.8071 41.7794 34.2329 42.1365 33.8775L43.7571 32.2643C44.2974 31.7265 44.2974 30.8607 43.7571 30.3229L43.107 29.6758C42.8506 29.4115 42.5027 29.2748 42.1365 29.2748C41.7702 29.2748 41.4223 29.4206 41.1567 29.6758L30.1691 40.5947C29.986 40.7587 29.7571 40.8499 29.519 40.8499Z" fill="#202428"/>
<path d="M17.3971 36.2198C7.80121 36.2198 0 28.4545 0 18.9028C0 9.35113 7.80121 1.58582 17.3971 1.58582C26.9929 1.58582 34.7941 9.35113 34.7941 18.9028C34.7941 28.4545 26.9929 36.2198 17.3971 36.2198ZM17.3971 3.40866C8.81757 3.40866 1.83127 10.3628 1.83127 18.9028C1.83127 27.4428 8.81757 34.397 17.3971 34.397C25.9766 34.397 32.9629 27.4428 32.9629 18.9028C32.9629 10.3628 25.9766 3.40866 17.3971 3.40866Z" fill="#202428"/>
<path d="M10.0898 14.7167L13.3732 18.0001C13.6663 18.2932 13.6663 18.7685 13.3732 19.0616L10.0898 22.345C9.79669 22.6381 9.79669 23.1133 10.0898 23.4065L12.9387 26.2554C13.2319 26.5485 13.7071 26.5485 14.0002 26.2554L17.2836 22.972C17.5767 22.6789 18.052 22.6789 18.3451 22.972L21.6285 26.2554C21.9216 26.5485 22.3968 26.5485 22.6899 26.2554L25.5389 23.4065C25.832 23.1133 25.832 22.6381 25.5389 22.345L22.2555 19.0616C21.9623 18.7685 21.9623 18.2932 22.2555 18.0001L25.5389 14.7167C25.832 14.4236 25.832 13.9484 25.5389 13.6553L22.6899 10.8063C22.3968 10.5132 21.9216 10.5132 21.6285 10.8063L18.3451 14.0897C18.052 14.3829 17.5767 14.3829 17.2836 14.0897L14.0002 10.8063C13.7071 10.5132 13.2319 10.5132 12.9387 10.8063L10.0898 13.6553C9.79669 13.9484 9.79669 14.4236 10.0898 14.7167Z" stroke="#00C4C4" stroke-width="1.50111"/>
<path d="M38.1821 19.5046C37.8341 19.5046 37.4862 19.4682 37.1565 19.4317C36.6529 19.377 36.2959 18.9213 36.3508 18.42C36.4057 17.9187 36.8544 17.5633 37.3671 17.618C38.6765 17.7638 38.8505 17.7456 39.2167 16.8433C39.2259 16.825 40.4711 13.6989 42.394 13.6442C43.7766 13.6442 44.6464 14.8746 45.3149 16.0868C45.5804 16.5243 46.1939 17.1896 46.5967 17.2169C46.6425 17.2169 46.789 17.2352 47.0271 16.9526C47.7138 16.2691 48.9133 13.8629 49.7099 12.277C50.067 11.557 50.3875 10.9281 50.6072 10.5271C51.1108 9.49721 51.9532 8.87744 52.878 8.87744C52.8872 8.87744 52.8872 8.87744 52.8963 8.87744C53.812 8.87744 54.6452 9.47898 55.1854 10.518L55.2312 10.6091C57.2181 14.5829 58.7655 16.1141 59.3241 16.1688C59.379 16.1688 61.9153 16.2691 62.6204 16.3511C63.124 16.4058 63.4811 16.8615 63.4261 17.3628C63.3712 17.8641 62.9225 18.2195 62.4098 18.1648C61.8787 18.101 59.9101 18.019 59.1867 17.9917C57.5386 17.8276 55.6799 15.622 53.583 11.4294C53.3175 10.9008 53.0428 10.7003 52.8872 10.7003C52.7223 10.7003 52.4477 10.9099 52.2187 11.3747C51.9898 11.794 51.6877 12.3955 51.3397 13.0882C50.1311 15.5035 49.1514 17.4175 48.3548 18.2013C47.6955 18.9578 46.9447 19.0854 46.4319 19.0398C44.9578 18.9213 43.9139 17.3263 43.7217 17.0073C42.98 15.6675 42.5771 15.4761 42.4031 15.4761C42.0918 15.5035 41.2311 16.6519 40.9107 17.5177C40.2514 19.1765 39.1984 19.5046 38.1821 19.5046Z" fill="#00C4C4"/>
</svg>
