<svg width="52" height="52" viewBox="0 0 52 52" fill="none" xmlns="http://www.w3.org/2000/svg">
<rect width="52" height="52" rx="18" fill="url(#paint0_linear_663_4522)"/>
<circle cx="26" cy="26" r="18" fill="white"/>
<path d="M28.1786 32.5892V22.7975H26.3452H24.3333H23.5357C23.3274 22.7975 23.1607 22.9046 23.1607 23.0415V24.8034C23.1607 24.9403 23.3274 25.0475 23.5357 25.0475H24.3274V32.5892H23.375C23.1667 32.5892 23 32.6963 23 32.8332V34.4225C23 34.5594 23.1667 34.6665 23.375 34.6665H29.125C29.3333 34.6665 29.5 34.5594 29.5 34.4225V32.8332C29.5 32.6963 29.3333 32.5892 29.125 32.5892H28.1786Z" fill="#68CEDE"/>
<path d="M26.006 21.6071C27.2454 21.6071 28.2501 20.5758 28.2501 19.3036C28.2501 18.0313 27.2454 17 26.006 17C24.7667 17 23.762 18.0313 23.762 19.3036C23.762 20.5758 24.7667 21.6071 26.006 21.6071Z" fill="#68CEDE"/>
<defs>
<linearGradient id="paint0_linear_663_4522" x1="26" y1="0" x2="26" y2="52" gradientUnits="userSpaceOnUse">
<stop stop-color="#68CEDE"/>
<stop offset="1" stop-color="#66CDDD"/>
</linearGradient>
</defs>
</svg>
