<svg width="40" height="40" viewBox="0 0 40 40" fill="none" xmlns="http://www.w3.org/2000/svg">
<path d="M37.9883 9.96808L35.1 4.66725C34.4249 3.43888 33.3183 2.5093 31.9903 2.06664L29.0024 1.07066C28.5044 0.904662 27.9621 1.03746 27.5859 1.40265L21.0677 7.92079C20.6472 8.34131 20.5476 8.98317 20.8132 9.51436L22.9712 13.8413L13.8413 22.9712L9.51436 20.8132C8.98317 20.5476 8.34131 20.6472 7.92079 21.0677L1.40265 27.5859C1.03746 27.9511 0.904662 28.5044 1.07066 29.0024L2.06664 31.9903C2.5093 33.3183 3.43888 34.4249 4.66725 35.1L9.96808 37.9883C13.1995 39.7479 17.2055 39.1724 19.8062 36.5718L36.5718 19.8062C39.1724 17.2055 39.7479 13.1995 37.9883 9.96808ZM34.6131 17.8474L17.8474 34.6131C16.11 36.3505 13.4429 36.7378 11.285 35.5537L5.98416 32.6654C5.36444 32.3334 4.89965 31.78 4.67832 31.1161L3.94793 28.936L9.14917 23.7347L13.4761 25.8927C14.0073 26.1583 14.6492 26.0587 15.0697 25.6382L25.605 15.1029C26.0255 14.6824 26.1251 14.0405 25.8595 13.5093L23.7015 9.18237L28.9028 3.98113L31.0829 4.71152C31.7469 4.93285 32.3002 5.39764 32.6322 6.01736L35.5205 11.3182C36.7378 13.4429 36.3505 16.121 34.6131 17.8474Z" fill="#202428"/>
</svg>
