<svg width="121" height="122" viewBox="0 0 121 122" fill="none" xmlns="http://www.w3.org/2000/svg">
<path d="M69.596 64.3106C69.1629 64.3106 68.7126 64.1381 68.3834 63.8105L58.3887 53.948C57.7132 53.2756 57.7132 52.1893 58.3714 51.5169C59.047 50.8444 60.1382 50.8444 60.8138 51.4996L70.8085 61.3621C71.4841 62.0346 71.4841 63.1208 70.8258 63.7933C70.4794 64.1381 70.0463 64.3106 69.596 64.3106Z" fill="#202428"/>
<path d="M59.2557 74.0349C58.8054 74.0349 58.355 73.8624 58.0085 73.5004L48.5162 63.7068C47.8579 63.0171 47.8753 61.9309 48.5681 61.2757C49.261 60.6205 50.3523 60.6377 51.0105 61.3274L60.5029 71.1209C61.1611 71.8106 61.1438 72.8969 60.4509 73.5521C60.1218 73.8797 59.6888 74.0349 59.2557 74.0349Z" fill="#202428"/>
<path d="M69.6003 118.537C69.1672 118.537 68.7342 118.382 68.405 118.054C67.7122 117.399 67.6949 116.296 68.3531 115.623L73.9654 109.83C74.3118 109.468 74.8141 109.278 75.3338 109.313C78.5557 109.537 80.2012 108.606 81.6736 107.123L105.405 83.501C105.907 83.001 106.167 82.363 106.167 81.6561C106.167 80.9664 105.89 80.3112 105.405 79.8285L104.175 78.6043C103.153 77.587 101.507 77.6042 100.485 78.6043L97.4192 81.6561C96.7436 82.3286 95.6523 82.3286 94.9768 81.6561C94.3012 80.9837 94.3012 79.8974 94.9768 79.225L98.0427 76.1731C100.416 73.8109 104.261 73.8109 106.634 76.1731L107.864 77.3973C109.007 78.5353 109.648 80.0526 109.648 81.6734C109.648 83.2941 109.007 84.8114 107.864 85.9494L84.1333 109.571C82.557 111.14 80.1493 112.882 75.9227 112.795L70.8474 118.037C70.501 118.347 70.0506 118.537 69.6003 118.537Z" fill="#202428"/>
<path d="M42.2475 94.1745C41.7971 94.1745 41.3467 94.0021 41.0176 93.6572C40.3421 92.9848 40.3594 91.8813 41.0349 91.2261L44.0489 88.2949C41.5546 82.7774 42.6459 77.4841 47.2708 72.8804L53.2815 66.8974C53.957 66.225 55.0483 66.225 55.7239 66.8974C56.3994 67.5698 56.3994 68.6561 55.7239 69.3285L49.7132 75.3116C45.7985 79.2083 45.1575 83.1912 47.6865 87.8294C48.0503 88.5018 47.929 89.3467 47.3747 89.8812L43.46 93.6745C43.1136 94.0021 42.6805 94.1745 42.2475 94.1745Z" fill="#202428"/>
<path d="M96.1686 82.1561C95.7182 82.1561 95.2852 81.9836 94.9388 81.656C94.2632 80.9836 94.2632 79.8973 94.9388 79.2249L98.0047 76.173C98.5071 75.673 98.7669 75.035 98.7669 74.3281C98.7669 73.6384 98.4897 72.9832 98.0047 72.5004L96.7749 71.2763C95.7529 70.259 94.1073 70.259 93.0853 71.2763L90.0194 74.3281C89.3438 75.0006 88.2525 75.0006 87.577 74.3281C86.9014 73.6557 86.9014 72.5694 87.577 71.897L90.6429 68.8451C93.016 66.4829 96.8615 66.4829 99.2346 68.8451L100.464 70.0693C101.608 71.2073 102.249 72.7246 102.249 74.3454C102.249 75.9661 101.608 77.4834 100.464 78.6214L97.3985 81.6733C97.0694 81.9836 96.619 82.1561 96.1686 82.1561Z" fill="#202428"/>
<path d="M88.8063 74.8112C88.3559 74.8112 87.9229 74.6388 87.5765 74.3112C86.9009 73.6388 86.9009 72.5525 87.5765 71.8801L90.6424 68.8282C91.1448 68.3282 91.4046 67.6902 91.4046 66.9833C91.4046 66.2936 91.1274 65.6384 90.6424 65.1556L89.4126 63.9315C88.9276 63.4487 88.2693 63.1728 87.5765 63.1728C86.8836 63.1728 86.2254 63.4487 85.723 63.9315L82.657 66.9833C81.9815 67.6558 80.8902 67.6558 80.2147 66.9833C79.5391 66.3109 79.5391 65.2246 80.2147 64.5522L83.2806 61.5003C84.4239 60.3623 85.9482 59.7244 87.5765 59.7244C89.2047 59.7244 90.729 60.3623 91.8723 61.5003L93.1021 62.7245C94.2454 63.8625 94.8863 65.3798 94.8863 67.0006C94.8863 68.6213 94.2454 70.1386 93.1021 71.2766L90.0362 74.3285C89.6897 74.6388 89.2394 74.8112 88.8063 74.8112Z" fill="#202428"/>
<path d="M56.3439 77.742C55.8936 77.742 55.4605 77.5696 55.1141 77.242C54.4385 76.5695 54.4385 75.4833 55.1141 74.8108L75.9003 54.1547C77.0436 53.0167 78.5679 52.3788 80.1961 52.3788C81.8244 52.3788 83.3487 52.9995 84.492 54.1547L85.7218 55.3789C88.0949 57.7411 88.0776 61.5688 85.7218 63.931L82.6558 66.9829C81.9803 67.6553 80.889 67.6553 80.2135 66.9829C79.5379 66.3104 79.5379 65.2242 80.2135 64.5517L83.2794 61.4999C84.3014 60.4826 84.3014 58.8446 83.2794 57.8273L82.0496 56.6031C81.5646 56.1031 80.9063 55.8445 80.2135 55.8445C79.5206 55.8445 78.8624 56.1203 78.36 56.6031L57.5738 77.2592C57.2274 77.5696 56.7943 77.742 56.3439 77.742Z" fill="#202428"/>
<path d="M33.4115 68.983C15.2582 68.983 0.5 54.2927 0.5 36.223C0.5 18.1532 15.2582 3.46289 33.4115 3.46289C51.5648 3.46289 66.3231 18.1532 66.3231 36.223C66.3231 54.2927 51.5648 68.983 33.4115 68.983ZM33.4115 6.91132C17.181 6.91132 3.96437 20.0671 3.96437 36.223C3.96437 52.3789 17.181 65.5346 33.4115 65.5346C49.6421 65.5346 62.8587 52.3789 62.8587 36.223C62.8587 20.0671 49.6421 6.91132 33.4115 6.91132Z" fill="#202428"/>
<path d="M19.588 28.3037L25.7996 34.5153C26.3541 35.0698 26.3541 35.9688 25.7996 36.5233L19.588 42.7349C19.0335 43.2894 19.0335 44.1884 19.588 44.7429L24.9776 50.1325C25.5321 50.687 26.4311 50.687 26.9856 50.1325L33.1972 43.9209C33.7517 43.3664 34.6507 43.3664 35.2052 43.9209L41.4167 50.1325C41.9712 50.687 42.8703 50.687 43.4248 50.1325L48.8144 44.7429C49.3689 44.1884 49.3689 43.2894 48.8144 42.7349L42.6028 36.5233C42.0483 35.9688 42.0483 35.0698 42.6028 34.5153L48.8144 28.3037C49.3689 27.7492 49.3689 26.8502 48.8144 26.2957L43.4248 20.9061C42.8703 20.3516 41.9712 20.3516 41.4167 20.9061L35.2052 27.1177C34.6507 27.6722 33.7517 27.6722 33.1972 27.1177L26.9856 20.9061C26.4311 20.3516 25.5321 20.3516 24.9776 20.9061L19.588 26.2957C19.0335 26.8502 19.0335 27.7492 19.588 28.3037Z" stroke="#00C4C4" stroke-width="2.83977"/>
<path d="M72.7327 37.3614C72.0745 37.3614 71.4163 37.2925 70.7927 37.2235C69.84 37.12 69.1644 36.2579 69.2684 35.3096C69.3723 34.3613 70.2211 33.6888 71.1911 33.7923C73.6681 34.0682 73.9972 34.0337 74.6901 32.3267C74.7074 32.2922 77.0632 26.3782 80.7008 26.2747C83.3164 26.2747 84.962 28.6024 86.2265 30.8956C86.7288 31.7232 87.8894 32.9819 88.6515 33.0336C88.7381 33.0336 89.0153 33.0681 89.4656 32.5336C90.7648 31.2405 93.034 26.6885 94.541 23.6884C95.2165 22.3263 95.8228 21.1366 96.2385 20.3779C97.1912 18.4295 98.7848 17.2571 100.534 17.2571C100.552 17.2571 100.552 17.2571 100.569 17.2571C102.301 17.2571 103.877 18.3951 104.899 20.3607L104.986 20.5331C108.745 28.0507 111.672 30.9473 112.729 31.0508C112.833 31.0508 117.631 31.2405 118.965 31.3956C119.917 31.4991 120.593 32.3612 120.489 33.3095C120.385 34.2578 119.536 34.9303 118.566 34.8268C117.562 34.7061 113.838 34.551 112.469 34.4992C109.351 34.1889 105.835 30.0163 101.868 22.0849C101.366 21.0848 100.846 20.7055 100.552 20.7055C100.24 20.7055 99.7202 21.1021 99.2871 21.9814C98.8541 22.7746 98.2825 23.9125 97.6242 25.2229C95.3378 29.7921 93.4843 33.413 91.9773 34.8958C90.7301 36.3269 89.3098 36.5683 88.3397 36.4821C85.5509 36.2579 83.5762 33.2405 83.2125 32.6371C81.8094 30.1025 81.0472 29.7404 80.7181 29.7404C80.1292 29.7921 78.5009 31.9646 77.8946 33.6026C76.6475 36.7407 74.6555 37.3614 72.7327 37.3614Z" fill="#00C4C4"/>
</svg>
