<svg width="64" height="64" viewBox="0 0 64 64" fill="none" xmlns="http://www.w3.org/2000/svg">
<path d="M25.1887 28.2269C22.2704 31.1452 22.2704 35.8929 25.1887 38.8113C28.1071 41.7296 32.8548 41.7296 35.7731 38.8113C38.5172 36.0671 38.6915 31.7114 36.2958 28.7931L39.5191 25.5699V29.6207H41V23.0436H40.9564V23H34.3793V24.4809H38.4301L35.2069 27.7042C32.2886 25.3085 27.9328 25.4828 25.1887 28.2269ZM34.7278 37.7223C32.3757 40.0744 28.5862 40.0744 26.2777 37.7223C23.9256 35.3702 23.9256 31.5808 26.2777 29.2722C28.6298 26.9201 32.4192 26.9201 34.7278 29.2722C37.0363 31.6243 37.0799 35.4138 34.7278 37.7223Z" fill="#00C4C4"/>
</svg>
