<svg width="16" height="16" viewBox="0 0 16 16" fill="none" xmlns="http://www.w3.org/2000/svg">
<path fill-rule="evenodd" clip-rule="evenodd" d="M15.9231 12.887L14.6182 10.4276C14.3293 9.88234 14.1788 9.28183 14.1788 8.67298V5.3754C14.1799 2.43125 11.622 -0.0103922 8.49637 3.32632e-05C5.37956 0.0104587 2.8549 2.39476 2.8549 5.3337V6.95174C2.8549 8.69279 2.42435 10.4099 1.59866 11.9664L1.07071 12.962C0.85045 13.378 1.17143 13.8669 1.66507 13.8669H5.7437C6.00602 15.0826 7.14826 16 8.5174 16C9.88875 16 11.031 15.0836 11.2933 13.8669H15.2801C15.8147 13.868 16.1622 13.3373 15.9231 12.887ZM8.5174 14.9324C7.77915 14.9324 7.15711 14.4873 6.92247 13.868H10.1134C9.87768 14.4873 9.25565 14.9324 8.5174 14.9324ZM14.461 12.8004H2.52618C2.4166 12.8004 2.34576 12.692 2.39446 12.5992L2.85822 11.7266C3.60201 10.3275 3.98829 8.78453 3.98829 7.22071V5.37019C3.98829 3.02029 6.02926 1.06447 8.52514 1.06864C11.0232 1.07281 13.0498 2.97963 13.0498 5.3337V8.53641C13.0498 9.23596 13.2225 9.92508 13.5545 10.5506L14.6204 12.5596C14.678 12.6701 14.5927 12.8004 14.461 12.8004Z" fill="#60656A"/>
</svg>
