<svg width="16" height="16" viewBox="0 0 16 16" fill="none" xmlns="http://www.w3.org/2000/svg">
<circle cx="8" cy="8" r="8" fill="#485057"/>
<path d="M8.18164 9.59766H7.0918C7.0957 9.22266 7.12891 8.91602 7.19141 8.67773C7.25781 8.43555 7.36523 8.21484 7.51367 8.01562C7.66211 7.81641 7.85938 7.58984 8.10547 7.33594C8.28516 7.15234 8.44922 6.98047 8.59766 6.82031C8.75 6.65625 8.87305 6.48047 8.9668 6.29297C9.06055 6.10156 9.10742 5.87305 9.10742 5.60742C9.10742 5.33789 9.05859 5.10547 8.96094 4.91016C8.86719 4.71484 8.72656 4.56445 8.53906 4.45898C8.35547 4.35352 8.12695 4.30078 7.85352 4.30078C7.62695 4.30078 7.41211 4.3418 7.20898 4.42383C7.00586 4.50586 6.8418 4.63281 6.7168 4.80469C6.5918 4.97266 6.52734 5.19336 6.52344 5.4668H5.43945C5.44727 5.02539 5.55664 4.64648 5.76758 4.33008C5.98242 4.01367 6.27148 3.77148 6.63477 3.60352C6.99805 3.43555 7.4043 3.35156 7.85352 3.35156C8.34961 3.35156 8.77148 3.44141 9.11914 3.62109C9.4707 3.80078 9.73828 4.05859 9.92188 4.39453C10.1055 4.72656 10.1973 5.12109 10.1973 5.57812C10.1973 5.92969 10.125 6.25391 9.98047 6.55078C9.83984 6.84375 9.6582 7.11914 9.43555 7.37695C9.21289 7.63477 8.97656 7.88086 8.72656 8.11523C8.51172 8.31445 8.36719 8.53906 8.29297 8.78906C8.21875 9.03906 8.18164 9.30859 8.18164 9.59766ZM7.04492 11.4551C7.04492 11.2793 7.09961 11.1309 7.20898 11.0098C7.31836 10.8887 7.47656 10.8281 7.68359 10.8281C7.89453 10.8281 8.05469 10.8887 8.16406 11.0098C8.27344 11.1309 8.32812 11.2793 8.32812 11.4551C8.32812 11.623 8.27344 11.7676 8.16406 11.8887C8.05469 12.0098 7.89453 12.0703 7.68359 12.0703C7.47656 12.0703 7.31836 12.0098 7.20898 11.8887C7.09961 11.7676 7.04492 11.623 7.04492 11.4551Z" fill="white"/>
</svg>
