<svg width="16" height="16" viewBox="0 0 16 16" fill="none" xmlns="http://www.w3.org/2000/svg">
<mask id="path-1-inside-1_333_394" fill="white">
<path fill-rule="evenodd" clip-rule="evenodd" d="M13.1293 7.06394C13.1293 10.4129 10.4142 13.1279 7.06466 13.1279C3.71515 13.1279 1 10.4129 1 7.06394C1 3.71501 3.71515 1 7.06466 1C10.4142 1 13.1293 3.71501 13.1293 7.06394ZM11.6942 12.3999C10.4544 13.4763 8.8356 14.1279 7.06466 14.1279C3.16296 14.1279 0 10.9652 0 7.06394C0 3.16263 3.16296 0 7.06466 0C10.9664 0 14.1293 3.16263 14.1293 7.06394C14.1293 8.83459 13.4778 10.4531 12.4014 11.6928L15.9969 15.288L15.2899 15.9952L11.6942 12.3999Z"/>
</mask>
<path fill-rule="evenodd" clip-rule="evenodd" d="M13.1293 7.06394C13.1293 10.4129 10.4142 13.1279 7.06466 13.1279C3.71515 13.1279 1 10.4129 1 7.06394C1 3.71501 3.71515 1 7.06466 1C10.4142 1 13.1293 3.71501 13.1293 7.06394ZM11.6942 12.3999C10.4544 13.4763 8.8356 14.1279 7.06466 14.1279C3.16296 14.1279 0 10.9652 0 7.06394C0 3.16263 3.16296 0 7.06466 0C10.9664 0 14.1293 3.16263 14.1293 7.06394C14.1293 8.83459 13.4778 10.4531 12.4014 11.6928L15.9969 15.288L15.2899 15.9952L11.6942 12.3999Z" fill="white"/>
<path d="M11.6942 12.3999L12.4013 11.6927L11.7423 11.0338L11.0386 11.6448L11.6942 12.3999ZM12.4014 11.6928L11.6463 11.0372L11.0352 11.7409L11.6943 12.3999L12.4014 11.6928ZM15.9969 15.288L16.7041 15.9951L17.4111 15.2879L16.704 14.5809L15.9969 15.288ZM15.2899 15.9952L14.5828 16.7023L15.2899 17.4094L15.997 16.7022L15.2899 15.9952ZM7.06466 14.1279C10.9664 14.1279 14.1293 10.9652 14.1293 7.06394H12.1293C12.1293 9.86049 9.86199 12.1279 7.06466 12.1279V14.1279ZM0 7.06394C0 10.9652 3.16295 14.1279 7.06466 14.1279V12.1279C4.26734 12.1279 2 9.86049 2 7.06394H0ZM7.06466 0C3.16295 0 0 3.16264 0 7.06394H2C2 4.26739 4.26734 2 7.06466 2V0ZM14.1293 7.06394C14.1293 3.16264 10.9664 0 7.06466 0V2C9.86199 2 12.1293 4.26739 12.1293 7.06394H14.1293ZM7.06466 15.1279C9.08552 15.1279 10.935 14.3834 12.3498 13.155L11.0386 11.6448C9.97374 12.5693 8.58569 13.1279 7.06466 13.1279V15.1279ZM-1 7.06394C-1 11.5176 2.61077 15.1279 7.06466 15.1279V13.1279C3.71515 13.1279 1 10.4129 1 7.06394H-1ZM7.06466 -1C2.61077 -1 -1 2.61025 -1 7.06394H1C1 3.71501 3.71515 1 7.06466 1V-1ZM15.1293 7.06394C15.1293 2.61025 11.5186 -1 7.06466 -1V1C10.4142 1 13.1293 3.71501 13.1293 7.06394H15.1293ZM13.1564 12.3484C14.3848 10.9338 15.1293 9.08455 15.1293 7.06394H13.1293C13.1293 8.58464 12.5708 9.97241 11.6463 11.0372L13.1564 12.3484ZM11.6943 12.3999L15.2899 15.9952L16.704 14.5809L13.1084 10.9857L11.6943 12.3999ZM15.2898 14.5809L14.5827 15.2881L15.997 16.7022L16.7041 15.9951L15.2898 14.5809ZM15.9969 15.288L12.4013 11.6927L10.9872 13.107L14.5828 16.7023L15.9969 15.288Z" fill="#60656A" mask="url(#path-1-inside-1_333_394)"/>
</svg>
