<svg width="28" height="28" viewBox="0 0 28 28" fill="none" xmlns="http://www.w3.org/2000/svg">
<rect x="0.5" y="6.5" width="27" height="15" rx="2.5" fill="white" stroke="#CDD1D3"/>
<path d="M6.88965 10.6016V17H5.57129V10.6016H6.88965ZM9.43848 13.335V14.3633H6.5293V13.335H9.43848ZM9.74609 10.6016V11.6343H6.5293V10.6016H9.74609ZM11.9126 10.6016V17H10.5986V10.6016H11.9126ZM17.2607 15.9717V17H14.0396V15.9717H17.2607ZM14.4658 10.6016V17H13.1475V10.6016H14.4658ZM22.3101 15.9717V17H18.9043V15.9717H22.3101ZM19.335 10.6016V17H18.0166V10.6016H19.335ZM21.8662 13.2075V14.2095H18.9043V13.2075H21.8662ZM22.3057 10.6016V11.6343H18.9043V10.6016H22.3057Z" fill="#202428"/>
</svg>
