<svg width="24" height="24" viewBox="0 0 24 24" fill="none" xmlns="http://www.w3.org/2000/svg">
<circle cx="12" cy="12" r="12" fill="#8BE4E4"/>
<mask id="mask0_133_699" style="mask-type:alpha" maskUnits="userSpaceOnUse" x="0" y="0" width="24" height="24">
<circle cx="12" cy="12" r="12" fill="#8BE4E4"/>
</mask>
<g mask="url(#mask0_133_699)">
<path d="M21.464 27.3333H2.49129C2.21885 27.3333 2 27.111 2 26.8343V22.3663C2 19.4859 4.30013 17.1499 7.13622 17.1499H16.8638C19.6999 17.1499 22 19.4859 22 22.3663V26.789C22 27.0929 21.7588 27.3333 21.464 27.3333Z" fill="#CBF7F7"/>
<path d="M12 15.0724C14.8293 15.0724 17.1228 12.743 17.1228 9.86951C17.1228 6.99605 14.8293 4.66666 12 4.66666C9.17076 4.66666 6.8772 6.99605 6.8772 9.86951C6.8772 12.743 9.17076 15.0724 12 15.0724Z" fill="#CBF7F7"/>
</g>
</svg>
