<svg width="16" height="16" viewBox="0 0 16 16" fill="none" xmlns="http://www.w3.org/2000/svg">
<path d="M6.14256 13.1333C5.2102 14.0667 3.75338 14.0667 2.82102 13.1333C1.88866 12.2 1.88866 10.7417 2.82102 9.80833L5.67638 6.95L4.86056 6.13333L2.0052 8.99167C0.664932 10.3333 0.664932 12.55 2.0052 13.95C2.70447 14.65 3.63684 15 4.51093 15C5.38502 15 6.31738 14.65 6.95838 13.95L9.81374 11.0917L8.99792 10.275L6.14256 13.1333ZM13.9511 2.05C13.2518 1.35 12.3777 1 11.4454 1C10.513 1 9.63892 1.35 8.99792 2.05L6.55047 4.5L7.36628 5.31667L9.81374 2.80833C10.6878 1.93333 12.2029 1.93333 13.1353 2.80833C13.6015 3.275 13.8345 3.85833 13.8345 4.44167C13.8345 5.025 13.6015 5.66667 13.1353 6.075L10.6878 8.58333L11.5036 9.4L13.9511 6.89167C14.5921 6.25 15 5.375 15 4.44167C15 3.50833 14.5921 2.69167 13.9511 2.05ZM11.4454 5.31667L10.6296 4.5L4.45265 10.6833L5.26847 11.5L11.4454 5.31667Z" fill="#ADB5BD"/>
</svg>
