<svg width="96" height="97" viewBox="0 0 96 97" fill="none" xmlns="http://www.w3.org/2000/svg">
<rect x="8.49927" y="32.3862" width="86" height="25" rx="6.5" fill="white" fill-opacity="0.5" stroke="#202428" stroke-width="3"/>
<circle cx="82.3527" cy="45.2455" r="4.34119" fill="#00C4C4"/>
<rect x="8.49927" y="63.3862" width="86" height="25" rx="6.5" fill="white" fill-opacity="0.5" stroke="#202428" stroke-width="3"/>
<circle cx="81.8475" cy="76.6156" r="4.34119" fill="#00C4C4"/>
<path d="M14.9993 2.38623H87.9993C91.5891 2.38623 94.4993 5.29638 94.4993 8.88623V19.8862C94.4993 23.4761 91.5891 26.3862 87.9993 26.3862H14.9993C11.4094 26.3862 8.49927 23.4761 8.49927 19.8862V8.88623C8.49927 5.29638 11.4094 2.38623 14.9993 2.38623Z" fill="white" fill-opacity="0.5" stroke="#202428" stroke-width="3"/>
<circle cx="82.3527" cy="14.3744" r="4.34119" fill="#00C4C4"/>
<path d="M23.657 96.1143C10.6087 96.1143 0.000732422 85.5551 0.000732422 72.5669C0.000732422 59.5787 10.6087 49.0195 23.657 49.0195C36.7052 49.0195 47.3132 59.5787 47.3132 72.5669C47.3132 85.5551 36.7052 96.1143 23.657 96.1143ZM23.657 51.4982C11.9907 51.4982 2.49086 60.9543 2.49086 72.5669C2.49086 84.1795 11.9907 93.6356 23.657 93.6356C35.3232 93.6356 44.8231 84.1795 44.8231 72.5669C44.8231 60.9543 35.3232 51.4982 23.657 51.4982Z" fill="#202428"/>
<path d="M23.657 51.4982C11.9907 51.4982 2.49086 60.9543 2.49086 72.5669C2.49086 84.1795 11.9907 93.6356 23.657 93.6356C35.3232 93.6356 44.8231 84.1795 44.8231 72.5669C44.8231 60.9543 35.3232 51.4982 23.657 51.4982Z" fill="white"/>
<path d="M13.0047 67.4287L16.9048 71.3288C17.4593 71.8833 17.4593 72.7823 16.9048 73.3368L13.0047 77.2369C12.4502 77.7914 12.4502 78.6904 13.0047 79.2449L16.314 82.5541C16.8685 83.1086 17.7675 83.1086 18.322 82.5541L22.2221 78.6541C22.7766 78.0996 23.6756 78.0996 24.2301 78.6541L28.1302 82.5541C28.6847 83.1086 29.5837 83.1086 30.1382 82.5541L33.4475 79.2449C34.002 78.6904 34.002 77.7914 33.4475 77.2369L29.5474 73.3368C28.9929 72.7823 28.9929 71.8833 29.5474 71.3288L33.4475 67.4287C34.002 66.8742 34.002 65.9752 33.4475 65.4207L30.1382 62.1114C29.5837 61.5569 28.6847 61.5569 28.1302 62.1114L24.2301 66.0115C23.6756 66.566 22.7766 66.566 22.2221 66.0115L18.322 62.1114C17.7675 61.5569 16.8685 61.5569 16.314 62.1114L13.0047 65.4207C12.4502 65.9752 12.4502 66.8742 13.0047 67.4287Z" stroke="#00C4C4" stroke-width="3"/>
</svg>
