<svg width="64" height="64" viewBox="0 0 64 64" fill="none" xmlns="http://www.w3.org/2000/svg">
<path d="M40 28C40 23.5814 36.4186 20 32 20C27.5814 20 24 23.5814 24 28C24 32.1395 27.1628 35.5349 31.2093 35.9535V39.3488H28.6512V40.9302H31.2093V43.814H32.7907V40.9302H35.3488V39.3488H32.7907V35.9535C36.8372 35.5349 40 32.1395 40 28ZM25.5814 28C25.5814 24.4651 28.4651 21.6279 31.9535 21.6279C35.4884 21.6279 38.3256 24.5116 38.3256 28C38.3256 31.4884 35.4419 34.3721 31.9535 34.3721C28.4651 34.3721 25.5814 31.5349 25.5814 28Z" fill="#CDD3D7"/>
</svg>
