<svg width="41" height="40" viewBox="0 0 41 40" fill="none" xmlns="http://www.w3.org/2000/svg">
<path d="M20.5 0C9.98069 0 1.5 7.84081 1.5 17.5098C1.5 24.66 4.51717 28.0725 8.59442 31.1601V39.5291C8.59442 39.9353 9.04292 40.1384 9.3691 39.8947L16.5858 34.5727L16.7489 34.6539C17.9721 34.8571 19.1953 34.9789 20.5 34.9789C30.9785 34.9789 39.5 27.1381 39.5 17.4692C39.4592 7.84081 30.9785 0 20.5 0ZM14.1395 21.938C16.015 21.938 17.6052 20.8411 18.0536 19.0942H20.7854C20.133 22.3849 17.5236 24.5381 14.0987 24.5381C10.103 24.5381 6.96352 21.5724 6.96352 17.4285C6.96352 13.2847 10.1438 10.319 14.0987 10.319C17.5644 10.319 20.1738 12.5128 20.7854 15.8847H18.0536C17.6459 14.0566 15.9742 12.9191 14.0987 12.9191C11.4077 12.9191 9.61373 14.8285 9.61373 17.4285C9.65451 20.0692 11.6931 21.938 14.1395 21.938ZM32.2425 24.2943H29.7146V18.6067C29.7146 17.3067 28.9399 16.616 27.7983 16.616C26.4936 16.616 25.6373 17.4285 25.6373 19.0129V24.2943H23.1094V10.4409H25.6373V15.641C26.2489 14.7066 27.2275 14.2597 28.5322 14.2597C29.5923 14.2597 30.4893 14.6253 31.1824 15.316C31.8755 16.0473 32.2425 17.0223 32.2425 18.2817V24.2943Z" fill="#030303"/>
</svg>
